<svg xmlns="http://www.w3.org/2000/svg" xmlns:xlink="http://www.w3.org/1999/xlink" width="190" zoomAndPan="magnify" viewBox="0 0 142.5 30.000001" height="40" preserveAspectRatio="xMidYMid meet" version="1.0"><defs><g/></defs><g fill="#e2d703" fill-opacity="1"><g transform="translate(24.266097, 15.885992)"><g><path d="M 4.09375 -7.34375 C 4.039062 -7.65625 3.878906 -7.953125 3.609375 -8.234375 L 3.03125 -8.3125 L 2.6875 -8.078125 L 2.53125 -7.390625 C 2.820312 -7.117188 3.101562 -6.84375 3.375 -6.5625 C 3.582031 -6.539062 3.878906 -6.484375 4.265625 -6.390625 C 4.523438 -6.296875 4.84375 -6.125 5.21875 -5.875 C 5.601562 -5.625 5.90625 -5.390625 6.125 -5.171875 L 6.140625 -4.75 L 6.40625 -4.34375 C 6.40625 -4.050781 6.390625 -3.613281 6.359375 -3.03125 C 6.316406 -2.90625 6.257812 -2.71875 6.1875 -2.46875 C 6.15625 -2.351562 6.082031 -2.015625 5.96875 -1.453125 L 5.1875 -0.5 C 4.625 -0.394531 4.175781 -0.210938 3.84375 0.046875 C 3.769531 0.046875 3.648438 0.0390625 3.484375 0.03125 C 3.328125 0.0195312 3.207031 0.015625 3.125 0.015625 C 3.039062 0.015625 2.757812 0.0507812 2.28125 0.125 C 2.195312 0.03125 2.066406 -0.09375 1.890625 -0.25 C 1.835938 -0.269531 1.757812 -0.316406 1.65625 -0.390625 C 1.625 -0.410156 1.460938 -0.601562 1.171875 -0.96875 C 0.960938 -1.21875 0.757812 -1.359375 0.5625 -1.390625 C 0.539062 -1.585938 0.472656 -1.9375 0.359375 -2.4375 C 0.265625 -2.882812 0.210938 -3.238281 0.203125 -3.5 L 0.46875 -3.296875 L 0.625 -3.5 L 0.875 -3.296875 L 1.265625 -3.453125 L 1.5 -3.296875 L 1.625 -3.453125 L 2.203125 -3.390625 L 2.4375 -3.5 L 2.46875 -2.84375 L 2.734375 -2.46875 L 2.75 -2.15625 C 3.050781 -2.1875 3.507812 -2.265625 4.125 -2.390625 L 4.375 -2.84375 L 4.3125 -3.5625 C 3.519531 -3.757812 2.929688 -4.019531 2.546875 -4.34375 L 1.546875 -4.5 C 1.367188 -4.976562 1.070312 -5.34375 0.65625 -5.59375 L 0.375 -6.484375 C 0.445312 -6.929688 0.484375 -7.128906 0.484375 -7.078125 C 0.484375 -7.148438 0.46875 -7.269531 0.4375 -7.4375 C 0.414062 -7.601562 0.40625 -7.726562 0.40625 -7.8125 C 0.40625 -8.019531 0.457031 -8.332031 0.5625 -8.75 C 0.644531 -9.132812 0.734375 -9.4375 0.828125 -9.65625 C 1.160156 -9.71875 1.578125 -9.898438 2.078125 -10.203125 L 2.171875 -10.4375 C 2.242188 -10.445312 2.445312 -10.488281 2.78125 -10.5625 C 3.03125 -10.613281 3.238281 -10.640625 3.40625 -10.640625 C 3.5 -10.640625 3.71875 -10.578125 4.0625 -10.453125 L 4.234375 -10.515625 C 4.648438 -10.304688 5.078125 -9.945312 5.515625 -9.4375 L 5.578125 -9.546875 C 5.878906 -8.921875 6.082031 -8.1875 6.1875 -7.34375 L 5.59375 -7.734375 L 4.90625 -7.34375 L 4.53125 -7.5625 Z M 4.09375 -7.34375 "/></g></g></g><g fill="#e2d703" fill-opacity="1"><g transform="translate(31.402116, 15.885992)"><g><path d="M 0.390625 -10.28125 C 1.046875 -10.414062 1.351562 -10.484375 1.3125 -10.484375 C 2.039062 -10.484375 2.921875 -10.351562 3.953125 -10.09375 C 4.503906 -10.21875 4.726562 -10.28125 4.625 -10.28125 L 5.875 -10.28125 L 5.875 -9.625 L 6.09375 -9.3125 L 5.65625 -8.90625 L 5.703125 -8.5 L 6.140625 -8 L 4.53125 -7.921875 L 4.640625 -8.078125 L 3.8125 -8.15625 L 3.90625 -7.921875 L 2.59375 -7.921875 L 2.59375 -7.484375 L 2.34375 -7.390625 L 2.59375 -6.46875 L 3.421875 -6.46875 L 3.84375 -6.65625 C 4.050781 -6.53125 4.363281 -6.472656 4.78125 -6.484375 C 5.207031 -6.492188 5.5 -6.46875 5.65625 -6.40625 L 5.140625 -6.0625 L 5.375 -5.71875 L 5.375 -5.328125 L 5.234375 -4.984375 L 5.703125 -4.4375 L 5.375 -4.125 L 3.953125 -4.359375 L 3.90625 -4.125 L 2.59375 -4.125 L 2.59375 -3.515625 L 2.421875 -3.484375 L 2.59375 -2.53125 L 4.71875 -2.296875 L 4.9375 -2.53125 L 6.015625 -2.53125 L 6.171875 -1.984375 L 5.75 -1.4375 L 6.265625 -1.1875 L 5.9375 -0.84375 L 6.265625 -0.5625 L 6.015625 -0.171875 L 5.421875 -0.328125 C 4.765625 -0.222656 4.457031 -0.171875 4.5 -0.171875 L 3.34375 -0.171875 L 3.203125 -0.359375 C 3.054688 -0.285156 2.613281 -0.234375 1.875 -0.203125 C 1.375 -0.191406 0.878906 -0.179688 0.390625 -0.171875 L 0.5625 -1.1875 L 0.203125 -1.390625 C 0.210938 -1.441406 0.253906 -1.671875 0.328125 -2.078125 C 0.367188 -2.347656 0.390625 -2.570312 0.390625 -2.75 L 0.390625 -4.046875 C 0.390625 -4.160156 0.3125 -4.425781 0.15625 -4.84375 C 0.175781 -5.207031 0.21875 -5.753906 0.28125 -6.484375 C 0.320312 -6.578125 0.359375 -6.71875 0.390625 -6.90625 C 0.410156 -7.0625 0.421875 -7.5 0.421875 -8.21875 C 0.429688 -8.757812 0.476562 -9.195312 0.5625 -9.53125 Z M 0.390625 -10.28125 "/></g></g></g><g fill="#e2d703" fill-opacity="1"><g transform="translate(38.294397, 15.885992)"><g><path d="M 0.671875 -10.171875 C 0.796875 -10.234375 1.0625 -10.296875 1.46875 -10.359375 C 1.84375 -10.421875 2.117188 -10.453125 2.296875 -10.453125 C 2.304688 -10.453125 2.707031 -10.394531 3.5 -10.28125 L 3.5625 -10.484375 C 4.070312 -10.285156 4.554688 -10.148438 5.015625 -10.078125 C 5.265625 -9.921875 5.5625 -9.726562 5.90625 -9.5 C 6.070312 -9.28125 6.257812 -9.035156 6.46875 -8.765625 C 6.46875 -8.628906 6.46875 -8.429688 6.46875 -8.171875 C 6.46875 -7.910156 6.46875 -7.710938 6.46875 -7.578125 C 6.46875 -7.554688 6.441406 -7.476562 6.390625 -7.34375 C 6.347656 -7.207031 6.320312 -7.117188 6.3125 -7.078125 C 6.289062 -6.804688 6.253906 -6.394531 6.203125 -5.84375 L 5.734375 -5.15625 C 5.492188 -5.15625 5.238281 -5.082031 4.96875 -4.9375 L 5.71875 -4.71875 C 6.050781 -4.445312 6.300781 -4.070312 6.46875 -3.59375 C 6.507812 -3.5 6.53125 -3.441406 6.53125 -3.421875 C 6.53125 -3.265625 6.519531 -3.019531 6.5 -2.6875 C 6.488281 -2.351562 6.484375 -2.109375 6.484375 -1.953125 C 6.484375 -1.078125 6.53125 -0.398438 6.625 0.078125 L 5.859375 -0.0625 L 5.765625 0.171875 L 5.09375 -0.171875 L 4.90625 0.078125 L 4.484375 -0.171875 C 4.472656 -0.265625 4.453125 -0.488281 4.421875 -0.84375 C 4.390625 -1.125 4.375 -1.347656 4.375 -1.515625 C 4.375 -1.585938 4.394531 -1.695312 4.4375 -1.84375 C 4.476562 -1.988281 4.5 -2.097656 4.5 -2.171875 C 4.5 -2.273438 4.378906 -2.519531 4.140625 -2.90625 L 4.296875 -3.296875 C 4.097656 -3.410156 3.796875 -3.570312 3.390625 -3.78125 C 3.128906 -3.695312 2.835938 -3.671875 2.515625 -3.703125 C 2.523438 -3.640625 2.53125 -3.582031 2.53125 -3.53125 C 2.53125 -3.414062 2.507812 -3.238281 2.46875 -3 C 2.4375 -2.757812 2.421875 -2.582031 2.421875 -2.46875 C 2.421875 -2.238281 2.4375 -1.90625 2.46875 -1.46875 C 2.507812 -1.03125 2.53125 -0.695312 2.53125 -0.46875 C 2.53125 -0.375 2.523438 -0.273438 2.515625 -0.171875 L 1.984375 -0.0625 L 1.90625 0.21875 L 0.890625 -0.171875 L 0.328125 0.171875 C 0.335938 0.0664062 0.34375 -0.09375 0.34375 -0.3125 C 0.34375 -0.425781 0.332031 -0.59375 0.3125 -0.8125 C 0.289062 -1.039062 0.28125 -1.210938 0.28125 -1.328125 C 0.28125 -1.429688 0.285156 -1.570312 0.296875 -1.75 C 0.304688 -1.9375 0.3125 -2.082031 0.3125 -2.1875 C 0.3125 -2.351562 0.289062 -2.566406 0.25 -2.828125 C 0.195312 -3.191406 0.164062 -3.40625 0.15625 -3.46875 C 0.363281 -4.175781 0.46875 -4.703125 0.46875 -5.046875 C 0.46875 -5.109375 0.390625 -5.410156 0.234375 -5.953125 C 0.285156 -6.398438 0.3125 -7.082031 0.3125 -8 C 0.3125 -8.113281 0.289062 -8.285156 0.25 -8.515625 C 0.207031 -8.753906 0.1875 -8.929688 0.1875 -9.046875 C 0.1875 -9.085938 0.226562 -9.5 0.3125 -10.28125 Z M 2.359375 -8 C 2.472656 -7.78125 2.53125 -7.382812 2.53125 -6.8125 C 2.53125 -6.71875 2.53125 -6.566406 2.53125 -6.359375 C 2.519531 -6.160156 2.515625 -6.015625 2.515625 -5.921875 L 3.390625 -5.921875 L 3.703125 -6.078125 L 4.109375 -6.078125 L 4.375 -6.4375 L 4.375 -7.328125 C 4.375 -7.484375 4.195312 -7.722656 3.84375 -8.046875 C 3.519531 -7.960938 3.351562 -7.921875 3.34375 -7.921875 C 3.320312 -7.921875 2.992188 -7.945312 2.359375 -8 Z M 2.359375 -8 "/></g></g></g><g fill="#e2d703" fill-opacity="1"><g transform="translate(45.755398, 15.885992)"><g><path d="M 0.328125 -10.28125 L 0.625 -10.15625 L 1.0625 -10.46875 L 1.671875 -10.15625 C 1.765625 -10.195312 1.894531 -10.238281 2.0625 -10.28125 L 2.53125 -10.28125 L 2.515625 -7.59375 C 2.515625 -7.46875 2.546875 -7.289062 2.609375 -7.0625 C 2.671875 -6.832031 2.703125 -6.660156 2.703125 -6.546875 C 2.703125 -6.546875 2.664062 -6.3125 2.59375 -5.84375 C 2.457031 -4.96875 2.390625 -4.34375 2.390625 -3.96875 C 2.390625 -3.863281 2.410156 -3.710938 2.453125 -3.515625 C 2.503906 -3.328125 2.53125 -3.1875 2.53125 -3.09375 L 2.53125 -0.171875 L 2.25 0.359375 L 1.6875 -0.359375 L 1.4375 -0.171875 L 1.0625 -0.28125 L 1 0.03125 L 0.328125 -0.171875 L 0.328125 -1.375 C 0.328125 -1.382812 0.367188 -1.625 0.453125 -2.09375 L 0.171875 -2.765625 C 0.234375 -3.117188 0.296875 -3.46875 0.359375 -3.8125 C 0.421875 -4.238281 0.453125 -4.585938 0.453125 -4.859375 C 0.453125 -5.046875 0.410156 -5.328125 0.328125 -5.703125 C 0.253906 -6.078125 0.21875 -6.359375 0.21875 -6.546875 C 0.21875 -6.722656 0.234375 -6.96875 0.265625 -7.28125 C 0.296875 -7.632812 0.316406 -7.882812 0.328125 -8.03125 C 0.328125 -8.03125 0.328125 -8.78125 0.328125 -10.28125 Z M 0.328125 -10.28125 "/></g></g></g><g fill="#e2d703" fill-opacity="1"><g transform="translate(49.330174, 15.885992)"><g><path d="M 2.984375 -10.59375 L 3.40625 -10.03125 L 3.765625 -10.515625 L 4.03125 -10.28125 L 4.203125 -10.59375 L 4.734375 -10.28125 C 4.734375 -10.1875 4.734375 -10.09375 4.734375 -10 C 4.734375 -9.582031 4.804688 -9.117188 4.953125 -8.609375 C 4.972656 -8.546875 5.003906 -8.476562 5.046875 -8.40625 C 5.085938 -8.332031 5.164062 -8.21875 5.28125 -8.0625 L 5.609375 -6.6875 C 5.578125 -6.570312 5.554688 -6.410156 5.546875 -6.203125 L 6.140625 -3.59375 L 6.453125 -3.140625 L 7.171875 -0.171875 L 6.96875 0.125 L 6.328125 -0.171875 L 6.265625 0.09375 L 5.703125 0.09375 L 5.34375 -0.171875 L 5.0625 0.203125 C 5.007812 0.0351562 4.890625 -0.53125 4.703125 -1.5 L 4.234375 -1.34375 L 3.171875 -1.375 L 3.03125 -1.5 L 2.34375 -1.484375 L 2.265625 -1.171875 L 2.390625 -0.953125 L 2.25 -0.171875 L 1.984375 0.09375 L 1.609375 -0.171875 L 1.046875 0.09375 L 0.65625 -0.171875 L 0.203125 0.09375 L 0.078125 -0.171875 C 0.160156 -0.628906 0.332031 -1.1875 0.59375 -1.84375 C 0.632812 -1.9375 0.679688 -2.066406 0.734375 -2.234375 C 0.796875 -2.410156 0.835938 -2.648438 0.859375 -2.953125 C 0.867188 -3.296875 0.890625 -3.535156 0.921875 -3.671875 C 1.117188 -4.734375 1.328125 -5.601562 1.546875 -6.28125 C 1.660156 -6.476562 1.804688 -6.78125 1.984375 -7.1875 C 1.992188 -7.226562 2.039062 -7.460938 2.125 -7.890625 C 2.21875 -8.328125 2.265625 -8.554688 2.265625 -8.578125 C 2.265625 -8.628906 2.253906 -8.710938 2.234375 -8.828125 C 2.222656 -8.953125 2.21875 -9.039062 2.21875 -9.09375 C 2.21875 -9.195312 2.3125 -9.59375 2.5 -10.28125 Z M 3.609375 -7.234375 L 3.046875 -5.484375 L 3.234375 -5.296875 L 2.921875 -3.609375 L 3.375 -3.75 C 3.738281 -3.65625 3.925781 -3.609375 3.9375 -3.609375 L 4.328125 -3.609375 C 4.191406 -4.660156 3.988281 -5.351562 3.71875 -5.6875 Z M 3.609375 -7.234375 "/></g></g></g><g fill="#e2d703" fill-opacity="1"><g transform="translate(57.197392, 15.885992)"><g><path d="M 0.140625 -10.546875 L 0.5625 -10.359375 L 1.0625 -10.46875 L 1.328125 -10.28125 L 1.859375 -10.546875 L 1.984375 -10.28125 L 2.5 -10.5 L 2.453125 -8.3125 L 2.28125 -8.09375 L 2.609375 -6.515625 C 2.503906 -6.273438 2.453125 -5.90625 2.453125 -5.40625 C 2.453125 -5.28125 2.457031 -5.085938 2.46875 -4.828125 C 2.476562 -4.566406 2.484375 -4.367188 2.484375 -4.234375 C 2.484375 -3.753906 2.421875 -3.421875 2.296875 -3.234375 L 2.453125 -2.53125 L 2.890625 -2.625 L 3.5 -2.53125 C 3.976562 -2.632812 4.207031 -2.6875 4.1875 -2.6875 C 4.351562 -2.6875 4.570312 -2.664062 4.84375 -2.625 C 5.207031 -2.570312 5.421875 -2.539062 5.484375 -2.53125 L 5.296875 -2.25 L 5.609375 -1.875 L 5.296875 -1.453125 L 5.484375 -0.875 L 5.359375 -0.375 L 5.484375 -0.171875 L 4.359375 0.03125 L 4.03125 -0.28125 C 3.257812 -0.207031 2.804688 -0.171875 2.671875 -0.171875 C 2.503906 -0.171875 2.265625 -0.203125 1.953125 -0.265625 C 1.640625 -0.328125 1.398438 -0.359375 1.234375 -0.359375 C 1.210938 -0.359375 0.882812 -0.296875 0.25 -0.171875 L 0.40625 -4.03125 C 0.40625 -4.132812 0.378906 -4.273438 0.328125 -4.453125 C 0.273438 -4.640625 0.25 -4.78125 0.25 -4.875 C 0.25 -5.082031 0.265625 -5.394531 0.296875 -5.8125 C 0.328125 -6.226562 0.34375 -6.539062 0.34375 -6.75 C 0.34375 -6.914062 0.304688 -7.160156 0.234375 -7.484375 C 0.171875 -7.816406 0.140625 -8.066406 0.140625 -8.234375 C 0.140625 -8.347656 0.15625 -8.515625 0.1875 -8.734375 C 0.226562 -8.960938 0.25 -9.128906 0.25 -9.234375 C 0.25 -9.359375 0.210938 -9.796875 0.140625 -10.546875 Z M 0.140625 -10.546875 "/></g></g></g><g fill="#e2d703" fill-opacity="1"><g transform="translate(63.236605, 15.885992)"><g><path d="M 0.390625 -10.28125 C 1.046875 -10.414062 1.351562 -10.484375 1.3125 -10.484375 C 2.039062 -10.484375 2.921875 -10.351562 3.953125 -10.09375 C 4.503906 -10.21875 4.726562 -10.28125 4.625 -10.28125 L 5.875 -10.28125 L 5.875 -9.625 L 6.09375 -9.3125 L 5.65625 -8.90625 L 5.703125 -8.5 L 6.140625 -8 L 4.53125 -7.921875 L 4.640625 -8.078125 L 3.8125 -8.15625 L 3.90625 -7.921875 L 2.59375 -7.921875 L 2.59375 -7.484375 L 2.34375 -7.390625 L 2.59375 -6.46875 L 3.421875 -6.46875 L 3.84375 -6.65625 C 4.050781 -6.53125 4.363281 -6.472656 4.78125 -6.484375 C 5.207031 -6.492188 5.5 -6.46875 5.65625 -6.40625 L 5.140625 -6.0625 L 5.375 -5.71875 L 5.375 -5.328125 L 5.234375 -4.984375 L 5.703125 -4.4375 L 5.375 -4.125 L 3.953125 -4.359375 L 3.90625 -4.125 L 2.59375 -4.125 L 2.59375 -3.515625 L 2.421875 -3.484375 L 2.59375 -2.53125 L 4.71875 -2.296875 L 4.9375 -2.53125 L 6.015625 -2.53125 L 6.171875 -1.984375 L 5.75 -1.4375 L 6.265625 -1.1875 L 5.9375 -0.84375 L 6.265625 -0.5625 L 6.015625 -0.171875 L 5.421875 -0.328125 C 4.765625 -0.222656 4.457031 -0.171875 4.5 -0.171875 L 3.34375 -0.171875 L 3.203125 -0.359375 C 3.054688 -0.285156 2.613281 -0.234375 1.875 -0.203125 C 1.375 -0.191406 0.878906 -0.179688 0.390625 -0.171875 L 0.5625 -1.1875 L 0.203125 -1.390625 C 0.210938 -1.441406 0.253906 -1.671875 0.328125 -2.078125 C 0.367188 -2.347656 0.390625 -2.570312 0.390625 -2.75 L 0.390625 -4.046875 C 0.390625 -4.160156 0.3125 -4.425781 0.15625 -4.84375 C 0.175781 -5.207031 0.21875 -5.753906 0.28125 -6.484375 C 0.320312 -6.578125 0.359375 -6.71875 0.390625 -6.90625 C 0.410156 -7.0625 0.421875 -7.5 0.421875 -8.21875 C 0.429688 -8.757812 0.476562 -9.195312 0.5625 -9.53125 Z M 0.390625 -10.28125 "/></g></g></g><g fill="#e2d703" fill-opacity="1"><g transform="translate(70.128886, 15.885992)"><g/></g></g><g fill="#e2d703" fill-opacity="1"><g transform="translate(73.419302, 15.885992)"><g><path d="M 4.359375 -4.828125 C 4.648438 -4.671875 4.859375 -4.445312 4.984375 -4.15625 L 5.234375 -4.359375 L 5.3125 -4.734375 L 5.734375 -5.234375 L 5.984375 -4.75 L 6.15625 -5.125 L 6.421875 -5 L 6.640625 -5.234375 L 6.78125 -5.078125 L 7.171875 -5.359375 C 7.140625 -5.078125 7.113281 -4.660156 7.09375 -4.109375 L 6.671875 -3.640625 L 6.703125 -3.453125 C 6.441406 -3.179688 6.226562 -2.878906 6.0625 -2.546875 L 6.25 -2.28125 L 6.234375 -1.84375 L 6.46875 -1.921875 L 7.59375 -0.171875 L 7.46875 0.171875 L 6.8125 -0.078125 L 6.75 0.109375 L 6.34375 -0.171875 L 5.953125 0.140625 L 5.796875 -0.171875 L 5.265625 -0.171875 L 4.859375 -1.078125 L 4.328125 -0.96875 L 4.4375 -0.71875 L 4.078125 -0.546875 L 4.015625 -0.375 C 3.378906 -0.0625 2.859375 0.117188 2.453125 0.171875 L 2.09375 -0.078125 L 1.6875 -0.046875 L 0.921875 -0.515625 C 0.804688 -0.773438 0.664062 -1.03125 0.5 -1.28125 C 0.445312 -1.34375 0.375 -1.441406 0.28125 -1.578125 C 0.1875 -1.765625 0.140625 -2.203125 0.140625 -2.890625 C 0.140625 -2.898438 0.15625 -2.960938 0.1875 -3.078125 C 0.226562 -3.304688 0.300781 -3.648438 0.40625 -4.109375 C 0.476562 -4.304688 0.59375 -4.609375 0.75 -5.015625 L 1.125 -5.140625 L 1.203125 -5.5625 L 1.59375 -5.75 L 1.46875 -5.984375 L 1.453125 -6.375 L 1.078125 -6.828125 L 0.96875 -7.59375 L 1.078125 -8.140625 L 1.015625 -8.390625 L 1.078125 -9.078125 C 1.210938 -9.109375 1.523438 -9.347656 2.015625 -9.796875 L 1.953125 -9.921875 C 2.453125 -10.148438 2.90625 -10.300781 3.3125 -10.375 L 4.25 -10.03125 L 4.328125 -9.828125 L 4.734375 -9.6875 L 5.140625 -9.109375 C 5.222656 -8.597656 5.34375 -8.070312 5.5 -7.53125 L 5.40625 -7.234375 C 5.425781 -7.066406 5.4375 -6.941406 5.4375 -6.859375 C 5.4375 -6.773438 5.296875 -6.3125 5.015625 -5.46875 L 4.40625 -5.046875 Z M 3.90625 -7.5 L 3.921875 -7.890625 L 4.03125 -8.0625 L 3.640625 -8.5 L 3.078125 -8.578125 C 2.960938 -8.367188 2.820312 -8.15625 2.65625 -7.9375 L 2.703125 -7.40625 L 2.921875 -7.125 L 2.890625 -6.984375 L 3.390625 -6.484375 Z M 2.75 -4.359375 L 2.234375 -3.453125 L 2.0625 -3.34375 C 2.082031 -3.082031 2.09375 -2.9375 2.09375 -2.90625 C 2.09375 -2.914062 2.078125 -2.8125 2.046875 -2.59375 L 2.34375 -2.140625 L 2.53125 -2.1875 L 2.734375 -2.0625 L 3.421875 -2.4375 L 3.3125 -2.671875 L 3.75 -2.671875 C 3.59375 -3.234375 3.257812 -3.796875 2.75 -4.359375 Z M 2.75 -4.359375 "/></g></g></g><g fill="#e2d703" fill-opacity="1"><g transform="translate(81.638581, 15.885992)"><g/></g></g><g fill="#e2d703" fill-opacity="1"><g transform="translate(84.928998, 15.885992)"><g><path d="M 2.515625 -5.734375 L 2.75 -6.078125 L 3.703125 -6.078125 L 3.984375 -5.859375 L 4.703125 -6.25 L 4.9375 -6.078125 L 4.828125 -5.765625 L 5.25 -5.65625 L 4.9375 -5.203125 L 4.9375 -4.734375 L 4.65625 -4.078125 L 4.9375 -3.71875 L 3.53125 -3.71875 L 3.4375 -3.875 L 2.53125 -3.71875 L 2.6875 -2.1875 L 2.40625 -1.890625 L 2.53125 -0.171875 L 2.109375 -0.171875 L 1.6875 -0.359375 L 1.484375 0 L 1.09375 -0.3125 L 0.359375 0.078125 C 0.273438 -0.316406 0.234375 -0.539062 0.234375 -0.59375 C 0.234375 -1.007812 0.265625 -1.628906 0.328125 -2.453125 C 0.398438 -3.273438 0.4375 -3.894531 0.4375 -4.3125 C 0.4375 -4.457031 0.390625 -4.660156 0.296875 -4.921875 C 0.203125 -5.191406 0.15625 -5.398438 0.15625 -5.546875 C 0.15625 -5.804688 0.179688 -6.164062 0.234375 -6.625 C 0.285156 -7.132812 0.316406 -7.488281 0.328125 -7.6875 C 0.328125 -7.6875 0.328125 -8.265625 0.328125 -9.421875 L 0.625 -9.609375 L 0.328125 -10.28125 C 1.023438 -10.195312 1.390625 -10.15625 1.421875 -10.15625 C 1.546875 -10.15625 1.734375 -10.195312 1.984375 -10.28125 C 2.242188 -10.363281 2.4375 -10.40625 2.5625 -10.40625 C 2.664062 -10.40625 2.828125 -10.382812 3.046875 -10.34375 C 3.265625 -10.300781 3.425781 -10.28125 3.53125 -10.28125 C 3.675781 -10.28125 3.890625 -10.300781 4.171875 -10.34375 C 4.460938 -10.382812 4.679688 -10.40625 4.828125 -10.40625 C 4.898438 -10.40625 5.210938 -10.347656 5.765625 -10.234375 L 5.40625 -9.890625 L 5.6875 -9.296875 L 5.40625 -8.984375 L 5.6875 -8.390625 L 5.5625 -7.921875 L 4.1875 -8.078125 C 3.914062 -7.984375 3.753906 -7.929688 3.703125 -7.921875 C 3.367188 -7.921875 2.898438 -7.929688 2.296875 -7.953125 L 2.53125 -7.53125 C 2.445312 -7 2.40625 -6.707031 2.40625 -6.65625 C 2.40625 -6.78125 2.441406 -6.472656 2.515625 -5.734375 Z M 2.515625 -5.734375 "/></g></g></g><g fill="#e2d703" fill-opacity="1"><g transform="translate(91.198403, 15.885992)"><g><path d="M 0.328125 -10.28125 L 0.625 -10.15625 L 1.0625 -10.46875 L 1.671875 -10.15625 C 1.765625 -10.195312 1.894531 -10.238281 2.0625 -10.28125 L 2.53125 -10.28125 L 2.515625 -7.59375 C 2.515625 -7.46875 2.546875 -7.289062 2.609375 -7.0625 C 2.671875 -6.832031 2.703125 -6.660156 2.703125 -6.546875 C 2.703125 -6.546875 2.664062 -6.3125 2.59375 -5.84375 C 2.457031 -4.96875 2.390625 -4.34375 2.390625 -3.96875 C 2.390625 -3.863281 2.410156 -3.710938 2.453125 -3.515625 C 2.503906 -3.328125 2.53125 -3.1875 2.53125 -3.09375 L 2.53125 -0.171875 L 2.25 0.359375 L 1.6875 -0.359375 L 1.4375 -0.171875 L 1.0625 -0.28125 L 1 0.03125 L 0.328125 -0.171875 L 0.328125 -1.375 C 0.328125 -1.382812 0.367188 -1.625 0.453125 -2.09375 L 0.171875 -2.765625 C 0.234375 -3.117188 0.296875 -3.46875 0.359375 -3.8125 C 0.421875 -4.238281 0.453125 -4.585938 0.453125 -4.859375 C 0.453125 -5.046875 0.410156 -5.328125 0.328125 -5.703125 C 0.253906 -6.078125 0.21875 -6.359375 0.21875 -6.546875 C 0.21875 -6.722656 0.234375 -6.96875 0.265625 -7.28125 C 0.296875 -7.632812 0.316406 -7.882812 0.328125 -8.03125 C 0.328125 -8.03125 0.328125 -8.78125 0.328125 -10.28125 Z M 0.328125 -10.28125 "/></g></g></g><g fill="#e2d703" fill-opacity="1"><g transform="translate(94.773179, 15.885992)"><g><path d="M 0.140625 -10.546875 L 0.5625 -10.359375 L 1.0625 -10.46875 L 1.328125 -10.28125 L 1.859375 -10.546875 L 1.984375 -10.28125 L 2.5 -10.5 L 2.453125 -8.3125 L 2.28125 -8.09375 L 2.609375 -6.515625 C 2.503906 -6.273438 2.453125 -5.90625 2.453125 -5.40625 C 2.453125 -5.28125 2.457031 -5.085938 2.46875 -4.828125 C 2.476562 -4.566406 2.484375 -4.367188 2.484375 -4.234375 C 2.484375 -3.753906 2.421875 -3.421875 2.296875 -3.234375 L 2.453125 -2.53125 L 2.890625 -2.625 L 3.5 -2.53125 C 3.976562 -2.632812 4.207031 -2.6875 4.1875 -2.6875 C 4.351562 -2.6875 4.570312 -2.664062 4.84375 -2.625 C 5.207031 -2.570312 5.421875 -2.539062 5.484375 -2.53125 L 5.296875 -2.25 L 5.609375 -1.875 L 5.296875 -1.453125 L 5.484375 -0.875 L 5.359375 -0.375 L 5.484375 -0.171875 L 4.359375 0.03125 L 4.03125 -0.28125 C 3.257812 -0.207031 2.804688 -0.171875 2.671875 -0.171875 C 2.503906 -0.171875 2.265625 -0.203125 1.953125 -0.265625 C 1.640625 -0.328125 1.398438 -0.359375 1.234375 -0.359375 C 1.210938 -0.359375 0.882812 -0.296875 0.25 -0.171875 L 0.40625 -4.03125 C 0.40625 -4.132812 0.378906 -4.273438 0.328125 -4.453125 C 0.273438 -4.640625 0.25 -4.78125 0.25 -4.875 C 0.25 -5.082031 0.265625 -5.394531 0.296875 -5.8125 C 0.328125 -6.226562 0.34375 -6.539062 0.34375 -6.75 C 0.34375 -6.914062 0.304688 -7.160156 0.234375 -7.484375 C 0.171875 -7.816406 0.140625 -8.066406 0.140625 -8.234375 C 0.140625 -8.347656 0.15625 -8.515625 0.1875 -8.734375 C 0.226562 -8.960938 0.25 -9.128906 0.25 -9.234375 C 0.25 -9.359375 0.210938 -9.796875 0.140625 -10.546875 Z M 0.140625 -10.546875 "/></g></g></g><g fill="#e2d703" fill-opacity="1"><g transform="translate(100.812392, 15.885992)"><g><path d="M 0.203125 -10.4375 L 0.625 -10.15625 L 1.3125 -10.46875 L 1.53125 -10.28125 L 2.375 -10.4375 L 2.734375 -10.28125 L 3.0625 -10.46875 L 3.171875 -9.21875 L 3.40625 -8.78125 C 3.363281 -8.15625 3.34375 -7.765625 3.34375 -7.609375 C 3.34375 -7.597656 3.382812 -7.453125 3.46875 -7.171875 C 3.550781 -6.890625 3.664062 -6.453125 3.8125 -5.859375 C 3.8125 -5.859375 3.914062 -5.15625 4.125 -3.75 C 4.144531 -3.84375 4.253906 -4.289062 4.453125 -5.09375 C 4.535156 -5.4375 4.578125 -5.609375 4.578125 -5.609375 C 4.578125 -5.691406 4.566406 -5.816406 4.546875 -5.984375 C 4.523438 -6.160156 4.515625 -6.285156 4.515625 -6.359375 C 4.515625 -6.390625 4.570312 -6.675781 4.6875 -7.21875 C 4.84375 -7.945312 4.941406 -8.421875 4.984375 -8.640625 C 5.078125 -9.179688 5.128906 -9.664062 5.140625 -10.09375 L 5.4375 -10.671875 L 5.65625 -10.28125 L 6.234375 -10.40625 L 6.5 -10.09375 C 6.925781 -10.1875 7.238281 -10.3125 7.4375 -10.46875 L 7.796875 -10.28125 L 8.09375 -10.4375 C 8.132812 -9.414062 8.15625 -8.796875 8.15625 -8.578125 C 8.15625 -8.460938 8.117188 -8.300781 8.046875 -8.09375 C 7.984375 -7.882812 7.953125 -7.722656 7.953125 -7.609375 C 7.953125 -7.460938 7.960938 -7.234375 7.984375 -6.921875 C 8.003906 -6.617188 8.015625 -6.394531 8.015625 -6.25 L 8.015625 -4.5 C 8.015625 -4.320312 7.992188 -4.0625 7.953125 -3.71875 C 7.921875 -3.382812 7.90625 -3.132812 7.90625 -2.96875 C 7.90625 -2.851562 7.921875 -2.671875 7.953125 -2.421875 C 7.992188 -2.179688 8.015625 -2.003906 8.015625 -1.890625 L 8.015625 -0.171875 L 7.5 -0.359375 L 7.46875 0.03125 L 7 -0.171875 L 6.671875 0.296875 L 6.34375 -0.25 L 6.03125 -0.171875 C 6.03125 -0.234375 6.035156 -0.332031 6.046875 -0.46875 C 6.054688 -0.601562 6.0625 -0.707031 6.0625 -0.78125 C 6.0625 -0.84375 6.050781 -0.941406 6.03125 -1.078125 C 6.03125 -1.117188 6.015625 -1.1875 5.984375 -1.28125 C 5.960938 -1.382812 5.953125 -1.460938 5.953125 -1.515625 C 5.953125 -2.234375 5.976562 -2.816406 6.03125 -3.265625 C 6.039062 -3.335938 6.0625 -3.457031 6.09375 -3.625 C 6.132812 -3.800781 6.15625 -3.9375 6.15625 -4.03125 C 6.15625 -4.15625 6.140625 -4.335938 6.109375 -4.578125 C 6.085938 -4.816406 6.078125 -5 6.078125 -5.125 C 6.078125 -5.351562 6.113281 -5.6875 6.1875 -6.125 C 6.238281 -6.457031 6.296875 -6.789062 6.359375 -7.125 C 6.253906 -6.769531 6.113281 -6.234375 5.9375 -5.515625 C 5.914062 -5.242188 5.875 -4.84375 5.8125 -4.3125 C 5.75 -4.113281 5.660156 -3.8125 5.546875 -3.40625 C 5.410156 -2.6875 5.207031 -1.609375 4.9375 -0.171875 L 4.375 -0.28125 L 3.890625 0.359375 L 3.703125 -0.171875 L 3.390625 -0.171875 C 3.335938 -0.503906 3.242188 -1.003906 3.109375 -1.671875 C 3.015625 -1.847656 2.894531 -2.128906 2.75 -2.515625 C 2.738281 -2.554688 2.722656 -2.769531 2.703125 -3.15625 C 2.648438 -3.65625 2.582031 -4.394531 2.5 -5.375 C 2.5 -5.488281 2.476562 -5.648438 2.4375 -5.859375 C 2.414062 -5.910156 2.265625 -6.21875 1.984375 -6.78125 C 1.984375 -6.570312 2 -6.265625 2.03125 -5.859375 C 2.082031 -5.710938 2.148438 -5.484375 2.234375 -5.171875 C 2.273438 -4.910156 2.296875 -4.429688 2.296875 -3.734375 C 2.296875 -3.648438 2.226562 -3.253906 2.09375 -2.546875 L 2.40625 -1.578125 L 2.34375 0.0625 L 1.703125 -0.171875 L 1.34375 -0.046875 L 0.765625 -0.359375 L 0.296875 -0.171875 C 0.210938 -1.710938 0.171875 -2.492188 0.171875 -2.515625 C 0.171875 -2.796875 0.191406 -3.210938 0.234375 -3.765625 C 0.273438 -4.316406 0.296875 -4.734375 0.296875 -5.015625 C 0.296875 -5.160156 0.273438 -5.367188 0.234375 -5.640625 C 0.191406 -5.921875 0.171875 -6.128906 0.171875 -6.265625 C 0.171875 -6.421875 0.210938 -6.648438 0.296875 -6.953125 C 0.378906 -7.253906 0.421875 -7.484375 0.421875 -7.640625 C 0.421875 -8.421875 0.347656 -9.351562 0.203125 -10.4375 Z M 0.203125 -10.4375 "/></g></g></g><g fill="#e2d703" fill-opacity="1"><g transform="translate(109.871206, 15.885992)"><g><path d="M 2.984375 -10.59375 L 3.40625 -10.03125 L 3.765625 -10.515625 L 4.03125 -10.28125 L 4.203125 -10.59375 L 4.734375 -10.28125 C 4.734375 -10.1875 4.734375 -10.09375 4.734375 -10 C 4.734375 -9.582031 4.804688 -9.117188 4.953125 -8.609375 C 4.972656 -8.546875 5.003906 -8.476562 5.046875 -8.40625 C 5.085938 -8.332031 5.164062 -8.21875 5.28125 -8.0625 L 5.609375 -6.6875 C 5.578125 -6.570312 5.554688 -6.410156 5.546875 -6.203125 L 6.140625 -3.59375 L 6.453125 -3.140625 L 7.171875 -0.171875 L 6.96875 0.125 L 6.328125 -0.171875 L 6.265625 0.09375 L 5.703125 0.09375 L 5.34375 -0.171875 L 5.0625 0.203125 C 5.007812 0.0351562 4.890625 -0.53125 4.703125 -1.5 L 4.234375 -1.34375 L 3.171875 -1.375 L 3.03125 -1.5 L 2.34375 -1.484375 L 2.265625 -1.171875 L 2.390625 -0.953125 L 2.25 -0.171875 L 1.984375 0.09375 L 1.609375 -0.171875 L 1.046875 0.09375 L 0.65625 -0.171875 L 0.203125 0.09375 L 0.078125 -0.171875 C 0.160156 -0.628906 0.332031 -1.1875 0.59375 -1.84375 C 0.632812 -1.9375 0.679688 -2.066406 0.734375 -2.234375 C 0.796875 -2.410156 0.835938 -2.648438 0.859375 -2.953125 C 0.867188 -3.296875 0.890625 -3.535156 0.921875 -3.671875 C 1.117188 -4.734375 1.328125 -5.601562 1.546875 -6.28125 C 1.660156 -6.476562 1.804688 -6.78125 1.984375 -7.1875 C 1.992188 -7.226562 2.039062 -7.460938 2.125 -7.890625 C 2.21875 -8.328125 2.265625 -8.554688 2.265625 -8.578125 C 2.265625 -8.628906 2.253906 -8.710938 2.234375 -8.828125 C 2.222656 -8.953125 2.21875 -9.039062 2.21875 -9.09375 C 2.21875 -9.195312 2.3125 -9.59375 2.5 -10.28125 Z M 3.609375 -7.234375 L 3.046875 -5.484375 L 3.234375 -5.296875 L 2.921875 -3.609375 L 3.375 -3.75 C 3.738281 -3.65625 3.925781 -3.609375 3.9375 -3.609375 L 4.328125 -3.609375 C 4.191406 -4.660156 3.988281 -5.351562 3.71875 -5.6875 Z M 3.609375 -7.234375 "/></g></g></g><g fill="#ffffff" fill-opacity="1"><g transform="translate(42.244241, 24.110348)"><g><path d="M 0.125 -6.671875 L 0.390625 -6.5 L 0.84375 -6.6875 L 0.984375 -6.5625 L 1.515625 -6.671875 L 1.75 -6.5625 L 1.953125 -6.6875 L 2.03125 -5.890625 L 2.1875 -5.609375 C 2.15625 -5.210938 2.140625 -4.960938 2.140625 -4.859375 C 2.140625 -4.847656 2.164062 -4.753906 2.21875 -4.578125 C 2.269531 -4.398438 2.34375 -4.125 2.4375 -3.75 C 2.4375 -3.75 2.503906 -3.296875 2.640625 -2.390625 C 2.648438 -2.453125 2.71875 -2.738281 2.84375 -3.25 C 2.894531 -3.46875 2.921875 -3.578125 2.921875 -3.578125 C 2.921875 -3.628906 2.910156 -3.707031 2.890625 -3.8125 C 2.878906 -3.925781 2.875 -4.007812 2.875 -4.0625 C 2.875 -4.082031 2.914062 -4.265625 3 -4.609375 C 3.09375 -5.078125 3.15625 -5.378906 3.1875 -5.515625 C 3.238281 -5.867188 3.269531 -6.179688 3.28125 -6.453125 L 3.46875 -6.828125 L 3.625 -6.5625 L 3.984375 -6.640625 L 4.15625 -6.453125 C 4.425781 -6.515625 4.625 -6.59375 4.75 -6.6875 L 4.984375 -6.5625 L 5.171875 -6.671875 C 5.203125 -6.023438 5.21875 -5.628906 5.21875 -5.484375 C 5.21875 -5.410156 5.191406 -5.304688 5.140625 -5.171875 C 5.097656 -5.035156 5.078125 -4.929688 5.078125 -4.859375 C 5.078125 -4.765625 5.082031 -4.617188 5.09375 -4.421875 C 5.113281 -4.234375 5.125 -4.085938 5.125 -3.984375 L 5.125 -2.875 C 5.125 -2.757812 5.113281 -2.59375 5.09375 -2.375 C 5.070312 -2.164062 5.0625 -2.003906 5.0625 -1.890625 C 5.0625 -1.816406 5.070312 -1.703125 5.09375 -1.546875 C 5.113281 -1.390625 5.125 -1.273438 5.125 -1.203125 L 5.125 -0.109375 L 4.796875 -0.21875 L 4.765625 0.015625 L 4.46875 -0.109375 L 4.265625 0.1875 L 4.046875 -0.15625 L 3.859375 -0.109375 C 3.859375 -0.148438 3.859375 -0.210938 3.859375 -0.296875 C 3.867188 -0.390625 3.875 -0.457031 3.875 -0.5 C 3.875 -0.539062 3.867188 -0.601562 3.859375 -0.6875 C 3.859375 -0.71875 3.847656 -0.765625 3.828125 -0.828125 C 3.816406 -0.890625 3.8125 -0.9375 3.8125 -0.96875 C 3.8125 -1.425781 3.828125 -1.800781 3.859375 -2.09375 C 3.859375 -2.132812 3.867188 -2.207031 3.890625 -2.3125 C 3.921875 -2.425781 3.9375 -2.515625 3.9375 -2.578125 C 3.9375 -2.648438 3.925781 -2.765625 3.90625 -2.921875 C 3.894531 -3.078125 3.890625 -3.191406 3.890625 -3.265625 C 3.890625 -3.421875 3.910156 -3.632812 3.953125 -3.90625 C 3.992188 -4.125 4.03125 -4.335938 4.0625 -4.546875 C 4 -4.328125 3.910156 -3.984375 3.796875 -3.515625 C 3.785156 -3.347656 3.757812 -3.09375 3.71875 -2.75 C 3.675781 -2.625 3.617188 -2.4375 3.546875 -2.1875 C 3.453125 -1.71875 3.320312 -1.023438 3.15625 -0.109375 L 2.796875 -0.1875 L 2.484375 0.234375 L 2.359375 -0.109375 L 2.171875 -0.109375 C 2.140625 -0.328125 2.078125 -0.644531 1.984375 -1.0625 C 1.921875 -1.175781 1.84375 -1.359375 1.75 -1.609375 C 1.75 -1.628906 1.738281 -1.765625 1.71875 -2.015625 C 1.6875 -2.335938 1.644531 -2.8125 1.59375 -3.4375 C 1.59375 -3.507812 1.582031 -3.609375 1.5625 -3.734375 C 1.550781 -3.773438 1.453125 -3.976562 1.265625 -4.34375 C 1.265625 -4.207031 1.273438 -4.003906 1.296875 -3.734375 C 1.328125 -3.640625 1.367188 -3.5 1.421875 -3.3125 C 1.453125 -3.144531 1.46875 -2.835938 1.46875 -2.390625 C 1.46875 -2.335938 1.425781 -2.082031 1.34375 -1.625 L 1.546875 -1.015625 L 1.5 0.046875 L 1.09375 -0.109375 L 0.859375 -0.03125 L 0.484375 -0.21875 L 0.1875 -0.109375 C 0.132812 -1.085938 0.109375 -1.585938 0.109375 -1.609375 C 0.109375 -1.785156 0.117188 -2.050781 0.140625 -2.40625 C 0.171875 -2.757812 0.1875 -3.023438 0.1875 -3.203125 C 0.1875 -3.296875 0.171875 -3.429688 0.140625 -3.609375 C 0.117188 -3.785156 0.109375 -3.921875 0.109375 -4.015625 C 0.109375 -4.109375 0.132812 -4.25 0.1875 -4.4375 C 0.238281 -4.632812 0.265625 -4.78125 0.265625 -4.875 C 0.265625 -5.382812 0.21875 -5.984375 0.125 -6.671875 Z M 0.125 -6.671875 "/></g></g></g><g fill="#ffffff" fill-opacity="1"><g transform="translate(48.032157, 24.110348)"><g><path d="M 0.25 -6.5625 C 0.664062 -6.65625 0.863281 -6.703125 0.84375 -6.703125 C 1.3125 -6.703125 1.875 -6.617188 2.53125 -6.453125 C 2.882812 -6.523438 3.023438 -6.5625 2.953125 -6.5625 L 3.75 -6.5625 L 3.75 -6.15625 L 3.890625 -5.953125 L 3.625 -5.6875 L 3.640625 -5.4375 L 3.921875 -5.109375 L 2.90625 -5.0625 L 2.953125 -5.15625 L 2.4375 -5.21875 L 2.5 -5.0625 L 1.65625 -5.0625 L 1.65625 -4.78125 L 1.5 -4.71875 L 1.65625 -4.140625 L 2.1875 -4.140625 L 2.453125 -4.25 C 2.585938 -4.164062 2.789062 -4.128906 3.0625 -4.140625 C 3.332031 -4.148438 3.519531 -4.132812 3.625 -4.09375 L 3.296875 -3.875 L 3.4375 -3.65625 L 3.4375 -3.40625 L 3.34375 -3.1875 L 3.640625 -2.828125 L 3.4375 -2.625 L 2.53125 -2.78125 L 2.5 -2.625 L 1.65625 -2.625 L 1.65625 -2.234375 L 1.546875 -2.21875 L 1.65625 -1.625 L 3.015625 -1.46875 L 3.15625 -1.625 L 3.84375 -1.625 L 3.953125 -1.265625 L 3.671875 -0.921875 L 4 -0.765625 L 3.796875 -0.53125 L 4 -0.359375 L 3.84375 -0.109375 L 3.46875 -0.203125 C 3.050781 -0.140625 2.851562 -0.109375 2.875 -0.109375 L 2.140625 -0.109375 L 2.046875 -0.234375 C 1.953125 -0.179688 1.664062 -0.144531 1.1875 -0.125 C 0.875 -0.125 0.5625 -0.117188 0.25 -0.109375 L 0.359375 -0.765625 L 0.125 -0.890625 C 0.132812 -0.921875 0.160156 -1.066406 0.203125 -1.328125 C 0.234375 -1.492188 0.25 -1.632812 0.25 -1.75 L 0.25 -2.59375 C 0.25 -2.65625 0.203125 -2.820312 0.109375 -3.09375 C 0.117188 -3.320312 0.144531 -3.671875 0.1875 -4.140625 C 0.207031 -4.203125 0.226562 -4.296875 0.25 -4.421875 C 0.257812 -4.515625 0.265625 -4.789062 0.265625 -5.25 C 0.273438 -5.601562 0.304688 -5.882812 0.359375 -6.09375 Z M 0.25 -6.5625 "/></g></g></g><g fill="#ffffff" fill-opacity="1"><g transform="translate(52.435819, 24.110348)"><g/></g></g><g fill="#ffffff" fill-opacity="1"><g transform="translate(54.538151, 24.110348)"><g><path d="M 0.171875 -6.609375 L 0.984375 -6.5 L 0.96875 -6.625 L 1.921875 -6.5625 L 1.75 -6.5 L 3.171875 -6.46875 L 3.140625 -6.5625 L 4.21875 -6.5625 L 4.328125 -6.5 L 4.046875 -6.1875 L 4.328125 -5.953125 L 4.109375 -5.640625 L 4.359375 -5.4375 L 4.21875 -5.21875 L 4.359375 -4.921875 L 3.875 -4.984375 L 3.921875 -4.875 L 3.375 -4.78125 L 3.375 -4.875 L 2.9375 -4.875 C 2.894531 -4.519531 2.875 -4.347656 2.875 -4.359375 C 2.875 -4.253906 2.882812 -4.097656 2.90625 -3.890625 C 2.925781 -3.679688 2.9375 -3.523438 2.9375 -3.421875 C 2.9375 -3.367188 2.925781 -3.289062 2.90625 -3.1875 C 2.882812 -3.082031 2.875 -3.003906 2.875 -2.953125 C 2.875 -2.867188 2.882812 -2.742188 2.90625 -2.578125 C 2.925781 -2.410156 2.9375 -2.285156 2.9375 -2.203125 C 2.9375 -2.148438 2.925781 -2.078125 2.90625 -1.984375 C 2.882812 -1.898438 2.875 -1.832031 2.875 -1.78125 L 2.9375 0.09375 L 2.796875 -0.3125 L 2.671875 -0.109375 L 2.578125 -0.28125 L 2.203125 -0.171875 L 2.046875 0.25 L 1.890625 -0.1875 L 1.84375 0.28125 L 1.703125 -0.109375 L 1.53125 -0.109375 L 1.53125 -1.078125 C 1.53125 -1.117188 1.546875 -1.1875 1.578125 -1.28125 C 1.617188 -1.382812 1.640625 -1.457031 1.640625 -1.5 C 1.640625 -1.71875 1.625 -1.929688 1.59375 -2.140625 C 1.59375 -2.171875 1.582031 -2.21875 1.5625 -2.28125 C 1.539062 -2.34375 1.53125 -2.378906 1.53125 -2.390625 L 1.53125 -3.328125 C 1.53125 -3.347656 1.539062 -3.382812 1.5625 -3.4375 C 1.582031 -3.488281 1.59375 -3.523438 1.59375 -3.546875 C 1.601562 -3.765625 1.613281 -4.085938 1.625 -4.515625 L 1.53125 -4.640625 L 1.53125 -4.875 L 0.890625 -5 L 0.90625 -4.875 L 0.125 -4.84375 L 0.375 -5.171875 L 0.21875 -5.5 L 0.4375 -5.8125 L 0.21875 -6.0625 L 0.4375 -6.265625 Z M 0.171875 -6.609375 "/></g></g></g><g fill="#ffffff" fill-opacity="1"><g transform="translate(59.244615, 24.110348)"><g><path d="M 0.203125 -6.5625 L 0.390625 -6.5 L 0.6875 -6.6875 L 1.0625 -6.5 C 1.125 -6.519531 1.207031 -6.539062 1.3125 -6.5625 L 1.625 -6.5625 L 1.609375 -4.84375 C 1.609375 -4.769531 1.625 -4.660156 1.65625 -4.515625 C 1.695312 -4.367188 1.71875 -4.257812 1.71875 -4.1875 C 1.71875 -4.1875 1.695312 -4.035156 1.65625 -3.734375 C 1.570312 -3.171875 1.53125 -2.769531 1.53125 -2.53125 C 1.53125 -2.46875 1.546875 -2.375 1.578125 -2.25 C 1.609375 -2.125 1.625 -2.03125 1.625 -1.96875 L 1.625 -0.109375 L 1.4375 0.234375 L 1.078125 -0.21875 L 0.921875 -0.109375 L 0.6875 -0.1875 L 0.640625 0.015625 L 0.203125 -0.109375 L 0.203125 -0.875 C 0.203125 -0.882812 0.234375 -1.039062 0.296875 -1.34375 L 0.109375 -1.765625 C 0.148438 -1.992188 0.1875 -2.21875 0.21875 -2.4375 C 0.269531 -2.707031 0.296875 -2.929688 0.296875 -3.109375 C 0.296875 -3.234375 0.269531 -3.410156 0.21875 -3.640625 C 0.164062 -3.878906 0.140625 -4.0625 0.140625 -4.1875 C 0.140625 -4.300781 0.148438 -4.457031 0.171875 -4.65625 C 0.191406 -4.882812 0.203125 -5.046875 0.203125 -5.140625 C 0.203125 -5.140625 0.203125 -5.613281 0.203125 -6.5625 Z M 0.203125 -6.5625 "/></g></g></g><g fill="#ffffff" fill-opacity="1"><g transform="translate(61.52864, 24.110348)"><g><path d="M 0.171875 -6.609375 L 0.984375 -6.5 L 0.96875 -6.625 L 1.921875 -6.5625 L 1.75 -6.5 L 3.171875 -6.46875 L 3.140625 -6.5625 L 4.21875 -6.5625 L 4.328125 -6.5 L 4.046875 -6.1875 L 4.328125 -5.953125 L 4.109375 -5.640625 L 4.359375 -5.4375 L 4.21875 -5.21875 L 4.359375 -4.921875 L 3.875 -4.984375 L 3.921875 -4.875 L 3.375 -4.78125 L 3.375 -4.875 L 2.9375 -4.875 C 2.894531 -4.519531 2.875 -4.347656 2.875 -4.359375 C 2.875 -4.253906 2.882812 -4.097656 2.90625 -3.890625 C 2.925781 -3.679688 2.9375 -3.523438 2.9375 -3.421875 C 2.9375 -3.367188 2.925781 -3.289062 2.90625 -3.1875 C 2.882812 -3.082031 2.875 -3.003906 2.875 -2.953125 C 2.875 -2.867188 2.882812 -2.742188 2.90625 -2.578125 C 2.925781 -2.410156 2.9375 -2.285156 2.9375 -2.203125 C 2.9375 -2.148438 2.925781 -2.078125 2.90625 -1.984375 C 2.882812 -1.898438 2.875 -1.832031 2.875 -1.78125 L 2.9375 0.09375 L 2.796875 -0.3125 L 2.671875 -0.109375 L 2.578125 -0.28125 L 2.203125 -0.171875 L 2.046875 0.25 L 1.890625 -0.1875 L 1.84375 0.28125 L 1.703125 -0.109375 L 1.53125 -0.109375 L 1.53125 -1.078125 C 1.53125 -1.117188 1.546875 -1.1875 1.578125 -1.28125 C 1.617188 -1.382812 1.640625 -1.457031 1.640625 -1.5 C 1.640625 -1.71875 1.625 -1.929688 1.59375 -2.140625 C 1.59375 -2.171875 1.582031 -2.21875 1.5625 -2.28125 C 1.539062 -2.34375 1.53125 -2.378906 1.53125 -2.390625 L 1.53125 -3.328125 C 1.53125 -3.347656 1.539062 -3.382812 1.5625 -3.4375 C 1.582031 -3.488281 1.59375 -3.523438 1.59375 -3.546875 C 1.601562 -3.765625 1.613281 -4.085938 1.625 -4.515625 L 1.53125 -4.640625 L 1.53125 -4.875 L 0.890625 -5 L 0.90625 -4.875 L 0.125 -4.84375 L 0.375 -5.171875 L 0.21875 -5.5 L 0.4375 -5.8125 L 0.21875 -6.0625 L 0.4375 -6.265625 Z M 0.171875 -6.609375 "/></g></g></g><g fill="#ffffff" fill-opacity="1"><g transform="translate(66.235104, 24.110348)"><g><path d="M 0.4375 -6.5 C 0.507812 -6.539062 0.675781 -6.582031 0.9375 -6.625 C 1.175781 -6.664062 1.351562 -6.6875 1.46875 -6.6875 C 1.476562 -6.6875 1.734375 -6.644531 2.234375 -6.5625 L 2.28125 -6.703125 C 2.601562 -6.578125 2.910156 -6.488281 3.203125 -6.4375 C 3.359375 -6.34375 3.550781 -6.21875 3.78125 -6.0625 C 3.882812 -5.925781 4 -5.769531 4.125 -5.59375 C 4.125 -5.507812 4.128906 -5.382812 4.140625 -5.21875 C 4.140625 -5.050781 4.140625 -4.925781 4.140625 -4.84375 C 4.140625 -4.832031 4.125 -4.78125 4.09375 -4.6875 C 4.0625 -4.601562 4.039062 -4.550781 4.03125 -4.53125 C 4.019531 -4.351562 4 -4.085938 3.96875 -3.734375 L 3.65625 -3.296875 C 3.507812 -3.296875 3.347656 -3.25 3.171875 -3.15625 L 3.65625 -3.015625 C 3.863281 -2.835938 4.023438 -2.597656 4.140625 -2.296875 C 4.160156 -2.234375 4.171875 -2.195312 4.171875 -2.1875 C 4.171875 -2.082031 4.164062 -1.925781 4.15625 -1.71875 C 4.144531 -1.507812 4.140625 -1.351562 4.140625 -1.25 C 4.140625 -0.6875 4.171875 -0.253906 4.234375 0.046875 L 3.75 -0.046875 L 3.6875 0.109375 L 3.25 -0.109375 L 3.140625 0.046875 L 2.859375 -0.109375 C 2.859375 -0.171875 2.847656 -0.3125 2.828125 -0.53125 C 2.804688 -0.71875 2.796875 -0.863281 2.796875 -0.96875 C 2.796875 -1.007812 2.804688 -1.078125 2.828125 -1.171875 C 2.859375 -1.265625 2.875 -1.335938 2.875 -1.390625 C 2.875 -1.453125 2.800781 -1.609375 2.65625 -1.859375 L 2.75 -2.109375 C 2.613281 -2.179688 2.421875 -2.285156 2.171875 -2.421875 C 1.992188 -2.367188 1.804688 -2.347656 1.609375 -2.359375 C 1.617188 -2.328125 1.625 -2.296875 1.625 -2.265625 C 1.625 -2.179688 1.609375 -2.0625 1.578125 -1.90625 C 1.554688 -1.757812 1.546875 -1.648438 1.546875 -1.578125 C 1.546875 -1.429688 1.554688 -1.21875 1.578125 -0.9375 C 1.609375 -0.65625 1.625 -0.441406 1.625 -0.296875 C 1.625 -0.234375 1.617188 -0.171875 1.609375 -0.109375 L 1.265625 -0.046875 L 1.21875 0.140625 L 0.578125 -0.109375 L 0.203125 0.109375 C 0.210938 0.046875 0.21875 -0.0546875 0.21875 -0.203125 C 0.21875 -0.273438 0.210938 -0.378906 0.203125 -0.515625 C 0.191406 -0.660156 0.1875 -0.769531 0.1875 -0.84375 C 0.1875 -0.90625 0.1875 -0.992188 0.1875 -1.109375 C 0.195312 -1.234375 0.203125 -1.328125 0.203125 -1.390625 C 0.203125 -1.503906 0.191406 -1.644531 0.171875 -1.8125 C 0.128906 -2.039062 0.109375 -2.175781 0.109375 -2.21875 C 0.234375 -2.664062 0.296875 -3 0.296875 -3.21875 C 0.296875 -3.257812 0.242188 -3.453125 0.140625 -3.796875 C 0.179688 -4.085938 0.203125 -4.523438 0.203125 -5.109375 C 0.203125 -5.179688 0.1875 -5.289062 0.15625 -5.4375 C 0.132812 -5.59375 0.125 -5.707031 0.125 -5.78125 C 0.125 -5.8125 0.148438 -6.070312 0.203125 -6.5625 Z M 1.5 -5.109375 C 1.582031 -4.972656 1.625 -4.722656 1.625 -4.359375 C 1.625 -4.296875 1.625 -4.195312 1.625 -4.0625 C 1.613281 -3.9375 1.609375 -3.84375 1.609375 -3.78125 L 2.171875 -3.78125 L 2.359375 -3.890625 L 2.625 -3.890625 L 2.796875 -4.109375 L 2.796875 -4.6875 C 2.796875 -4.78125 2.679688 -4.929688 2.453125 -5.140625 C 2.242188 -5.085938 2.140625 -5.0625 2.140625 -5.0625 C 2.128906 -5.0625 1.914062 -5.078125 1.5 -5.109375 Z M 1.5 -5.109375 "/></g></g></g><g fill="#ffffff" fill-opacity="1"><g transform="translate(71.002129, 24.110348)"><g><path d="M 1.90625 -6.765625 L 2.1875 -6.421875 L 2.40625 -6.71875 L 2.578125 -6.5625 L 2.6875 -6.765625 L 3.03125 -6.5625 C 3.019531 -6.507812 3.015625 -6.453125 3.015625 -6.390625 C 3.015625 -6.117188 3.066406 -5.820312 3.171875 -5.5 C 3.179688 -5.457031 3.195312 -5.410156 3.21875 -5.359375 C 3.25 -5.316406 3.300781 -5.25 3.375 -5.15625 L 3.578125 -4.28125 C 3.566406 -4.195312 3.554688 -4.09375 3.546875 -3.96875 L 3.921875 -2.296875 L 4.125 -2.015625 L 4.578125 -0.109375 L 4.453125 0.078125 L 4.046875 -0.109375 L 4 0.0625 L 3.640625 0.0625 L 3.40625 -0.109375 L 3.234375 0.125 C 3.203125 0.0195312 3.125 -0.335938 3 -0.953125 L 2.703125 -0.859375 L 2.03125 -0.875 L 1.9375 -0.953125 L 1.5 -0.953125 L 1.453125 -0.75 L 1.53125 -0.609375 L 1.4375 -0.109375 L 1.265625 0.0625 L 1.03125 -0.109375 L 0.671875 0.0625 L 0.421875 -0.109375 L 0.125 0.0625 L 0.046875 -0.109375 C 0.0976562 -0.398438 0.207031 -0.753906 0.375 -1.171875 C 0.40625 -1.234375 0.4375 -1.316406 0.46875 -1.421875 C 0.507812 -1.535156 0.535156 -1.691406 0.546875 -1.890625 C 0.554688 -2.109375 0.570312 -2.257812 0.59375 -2.34375 C 0.71875 -3.03125 0.847656 -3.585938 0.984375 -4.015625 C 1.054688 -4.140625 1.148438 -4.332031 1.265625 -4.59375 C 1.273438 -4.613281 1.304688 -4.765625 1.359375 -5.046875 C 1.421875 -5.328125 1.453125 -5.472656 1.453125 -5.484375 C 1.453125 -5.515625 1.445312 -5.566406 1.4375 -5.640625 C 1.425781 -5.710938 1.421875 -5.769531 1.421875 -5.8125 C 1.421875 -5.875 1.476562 -6.125 1.59375 -6.5625 Z M 2.296875 -4.625 L 1.953125 -3.5 L 2.0625 -3.390625 L 1.875 -2.3125 L 2.15625 -2.390625 C 2.394531 -2.335938 2.515625 -2.3125 2.515625 -2.3125 L 2.765625 -2.3125 C 2.671875 -2.976562 2.539062 -3.421875 2.375 -3.640625 Z M 2.296875 -4.625 "/></g></g></g><g fill="#ffffff" fill-opacity="1"><g transform="translate(76.0287, 24.110348)"><g/></g></g><g fill="#ffffff" fill-opacity="1"><g transform="translate(78.131032, 24.110348)"><g><path d="M 2.609375 -4.6875 C 2.578125 -4.894531 2.476562 -5.085938 2.3125 -5.265625 L 1.9375 -5.3125 L 1.71875 -5.15625 L 1.625 -4.71875 C 1.800781 -4.550781 1.976562 -4.375 2.15625 -4.1875 C 2.289062 -4.175781 2.484375 -4.140625 2.734375 -4.078125 C 2.898438 -4.015625 3.101562 -3.90625 3.34375 -3.75 C 3.582031 -3.59375 3.769531 -3.445312 3.90625 -3.3125 L 3.921875 -3.03125 L 4.09375 -2.78125 C 4.09375 -2.59375 4.082031 -2.3125 4.0625 -1.9375 C 4.039062 -1.851562 4.003906 -1.734375 3.953125 -1.578125 C 3.929688 -1.503906 3.882812 -1.285156 3.8125 -0.921875 L 3.3125 -0.3125 C 2.957031 -0.25 2.671875 -0.132812 2.453125 0.03125 C 2.410156 0.03125 2.335938 0.0234375 2.234375 0.015625 C 2.128906 0.015625 2.050781 0.015625 2 0.015625 C 1.9375 0.015625 1.753906 0.0351562 1.453125 0.078125 C 1.398438 0.015625 1.320312 -0.0625 1.21875 -0.15625 C 1.175781 -0.175781 1.125 -0.207031 1.0625 -0.25 C 1.039062 -0.257812 0.9375 -0.382812 0.75 -0.625 C 0.613281 -0.78125 0.484375 -0.867188 0.359375 -0.890625 C 0.347656 -1.015625 0.300781 -1.238281 0.21875 -1.5625 C 0.164062 -1.84375 0.132812 -2.066406 0.125 -2.234375 L 0.296875 -2.109375 L 0.390625 -2.234375 L 0.5625 -2.109375 L 0.8125 -2.203125 L 0.953125 -2.109375 L 1.03125 -2.203125 L 1.40625 -2.171875 L 1.5625 -2.234375 L 1.578125 -1.8125 L 1.75 -1.578125 L 1.75 -1.375 C 1.945312 -1.394531 2.242188 -1.445312 2.640625 -1.53125 L 2.796875 -1.8125 L 2.75 -2.28125 C 2.25 -2.40625 1.875 -2.570312 1.625 -2.78125 L 0.984375 -2.875 C 0.878906 -3.175781 0.691406 -3.410156 0.421875 -3.578125 L 0.25 -4.140625 C 0.289062 -4.429688 0.3125 -4.554688 0.3125 -4.515625 C 0.3125 -4.566406 0.300781 -4.644531 0.28125 -4.75 C 0.269531 -4.863281 0.265625 -4.945312 0.265625 -5 C 0.265625 -5.125 0.296875 -5.320312 0.359375 -5.59375 C 0.410156 -5.84375 0.46875 -6.035156 0.53125 -6.171875 C 0.738281 -6.210938 1.003906 -6.328125 1.328125 -6.515625 L 1.390625 -6.671875 C 1.429688 -6.679688 1.5625 -6.707031 1.78125 -6.75 C 1.9375 -6.78125 2.066406 -6.796875 2.171875 -6.796875 C 2.234375 -6.796875 2.375 -6.757812 2.59375 -6.6875 L 2.703125 -6.71875 C 2.972656 -6.582031 3.242188 -6.351562 3.515625 -6.03125 L 3.5625 -6.109375 C 3.757812 -5.703125 3.890625 -5.226562 3.953125 -4.6875 L 3.578125 -4.9375 L 3.140625 -4.6875 L 2.90625 -4.828125 Z M 2.609375 -4.6875 "/></g></g></g><g fill="#ffffff" fill-opacity="1"><g transform="translate(82.690424, 24.110348)"><g><path d="M 0.28125 -6.71875 L 0.5 -6.5625 L 1.09375 -6.703125 L 1.171875 -6.5625 L 1.71875 -6.703125 L 1.71875 -5.390625 L 1.5625 -5.203125 L 1.71875 -4.390625 L 2.28125 -4.46875 L 2.65625 -4.3125 L 3.046875 -4.390625 C 3.046875 -4.429688 3.023438 -4.707031 2.984375 -5.21875 C 2.953125 -5.550781 2.9375 -5.828125 2.9375 -6.046875 C 2.9375 -6.140625 2.992188 -6.390625 3.109375 -6.796875 L 3.453125 -6.5625 L 3.703125 -6.671875 L 3.875 -6.46875 L 4.140625 -6.640625 L 4.453125 -6.5625 C 4.453125 -6.476562 4.453125 -6.347656 4.453125 -6.171875 C 4.453125 -5.992188 4.453125 -5.859375 4.453125 -5.765625 C 4.453125 -5.597656 4.453125 -5.46875 4.453125 -5.375 C 4.453125 -5.28125 4.460938 -5.128906 4.484375 -4.921875 C 4.515625 -4.722656 4.53125 -4.570312 4.53125 -4.46875 C 4.53125 -4.414062 4.519531 -4.351562 4.5 -4.28125 C 4.476562 -4.175781 4.460938 -4.109375 4.453125 -4.078125 C 4.398438 -3.640625 4.375 -3.289062 4.375 -3.03125 C 4.375 -2.925781 4.398438 -2.773438 4.453125 -2.578125 C 4.503906 -2.390625 4.53125 -2.242188 4.53125 -2.140625 C 4.53125 -1.941406 4.515625 -1.609375 4.484375 -1.140625 C 4.460938 -0.691406 4.453125 -0.347656 4.453125 -0.109375 L 4.203125 0.03125 L 4 -0.4375 L 3.734375 -0.109375 L 3.890625 -0.109375 L 3.796875 0.046875 L 3.46875 0.046875 L 3.390625 -0.203125 L 3.046875 -0.109375 L 2.9375 -1.421875 L 3.046875 -1.703125 L 3.046875 -2.609375 C 2.992188 -2.609375 2.9375 -2.609375 2.875 -2.609375 C 2.664062 -2.609375 2.390625 -2.648438 2.046875 -2.734375 L 1.828125 -2.53125 L 1.71875 -2.609375 C 1.71875 -2.554688 1.71875 -2.472656 1.71875 -2.359375 C 1.71875 -2.234375 1.71875 -2.144531 1.71875 -2.09375 C 1.71875 -1.988281 1.710938 -1.90625 1.703125 -1.84375 C 1.703125 -1.78125 1.691406 -1.6875 1.671875 -1.5625 C 1.648438 -1.4375 1.640625 -1.335938 1.640625 -1.265625 C 1.640625 -1.210938 1.691406 -0.953125 1.796875 -0.484375 L 1.71875 -0.109375 L 1.390625 0 L 1.234375 -0.296875 L 0.984375 -0.03125 L 0.765625 -0.21875 L 0.65625 -0.109375 L 0.4375 -0.1875 L 0.359375 0.03125 L 0.203125 -0.765625 L 0.453125 -1.390625 C 0.328125 -2.179688 0.265625 -2.613281 0.265625 -2.6875 C 0.265625 -2.8125 0.269531 -3.003906 0.28125 -3.265625 C 0.289062 -3.535156 0.296875 -3.738281 0.296875 -3.875 C 0.296875 -4.039062 0.265625 -4.285156 0.203125 -4.609375 C 0.140625 -4.941406 0.109375 -5.191406 0.109375 -5.359375 C 0.109375 -5.535156 0.128906 -5.765625 0.171875 -6.046875 C 0.203125 -6.265625 0.238281 -6.488281 0.28125 -6.71875 Z M 0.28125 -6.71875 "/></g></g></g><g fill="#ffffff" fill-opacity="1"><g transform="translate(87.803518, 24.110348)"><g><path d="M 3.703125 0.375 L 3.625 -0.015625 L 3.4375 -0.265625 L 3 -0.046875 C 2.9375 -0.0351562 2.867188 -0.03125 2.796875 -0.03125 C 2.546875 -0.03125 2.367188 -0.0625 2.265625 -0.125 L 2.015625 0.03125 L 1.328125 -0.25 L 1.015625 -0.59375 L 0.796875 -0.59375 C 0.660156 -0.863281 0.5625 -1 0.5 -1 C 0.476562 -1 0.460938 -1 0.453125 -1 L 0.453125 -1.0625 C 0.453125 -1.289062 0.394531 -1.613281 0.28125 -2.03125 C 0.175781 -2.457031 0.125 -2.773438 0.125 -2.984375 C 0.125 -2.984375 0.15625 -3.140625 0.21875 -3.453125 C 0.15625 -3.691406 0.125 -3.804688 0.125 -3.796875 C 0.125 -3.804688 0.144531 -4.066406 0.1875 -4.578125 L 0.515625 -5.078125 L 0.625 -5.65625 L 0.84375 -5.765625 L 0.828125 -6.03125 C 1.160156 -6.332031 1.523438 -6.570312 1.921875 -6.75 C 2.335938 -6.6875 2.722656 -6.640625 3.078125 -6.609375 C 3.503906 -6.203125 3.863281 -5.929688 4.15625 -5.796875 L 4.1875 -5.328125 L 4.46875 -4.734375 C 4.46875 -4.703125 4.46875 -4.644531 4.46875 -4.5625 C 4.457031 -4.488281 4.453125 -4.429688 4.453125 -4.390625 C 4.453125 -4.222656 4.476562 -3.972656 4.53125 -3.640625 C 4.582031 -3.304688 4.609375 -3.054688 4.609375 -2.890625 C 4.609375 -2.847656 4.585938 -2.75 4.546875 -2.59375 C 4.492188 -2.414062 4.46875 -2.304688 4.46875 -2.265625 C 4.457031 -2.140625 4.429688 -1.953125 4.390625 -1.703125 C 4.335938 -1.585938 4.253906 -1.410156 4.140625 -1.171875 L 4.25 -0.6875 L 4.625 -0.328125 L 4.4375 -0.03125 L 4.3125 0.046875 L 4.28125 0.234375 L 4.09375 0.375 L 4.140625 0.625 L 4.03125 0.609375 Z M 2.015625 -2.515625 L 2.296875 -2.484375 L 2.21875 -2.828125 L 2.484375 -2.90625 L 2.515625 -3.234375 L 2.6875 -3.40625 L 2.703125 -3.25 L 3.15625 -2.546875 L 3.3125 -3.015625 L 3.171875 -3.28125 L 3.171875 -4.03125 C 3.171875 -4.09375 3.140625 -4.304688 3.078125 -4.671875 L 2.84375 -4.921875 L 2.609375 -4.984375 L 2.453125 -5.234375 C 2.140625 -5.140625 1.835938 -4.957031 1.546875 -4.6875 L 1.65625 -4.390625 C 1.59375 -4.085938 1.554688 -3.851562 1.546875 -3.6875 C 1.546875 -3.539062 1.523438 -3.320312 1.484375 -3.03125 L 1.640625 -2.828125 L 1.625 -2.4375 C 1.769531 -2.070312 1.832031 -1.816406 1.8125 -1.671875 L 2.09375 -1.71875 L 2.328125 -1.53125 L 2.59375 -1.578125 C 2.539062 -1.679688 2.460938 -1.832031 2.359375 -2.03125 C 2.316406 -2.070312 2.25 -2.132812 2.15625 -2.21875 C 2.132812 -2.25 2.070312 -2.351562 1.96875 -2.53125 Z M 2.015625 -2.515625 "/></g></g></g><g fill="#ffffff" fill-opacity="1"><g transform="translate(92.977172, 24.110348)"><g><path d="M 0.203125 -6.5625 L 0.390625 -6.5 L 0.6875 -6.6875 L 1.0625 -6.5 C 1.125 -6.519531 1.207031 -6.539062 1.3125 -6.5625 L 1.625 -6.5625 L 1.609375 -4.84375 C 1.609375 -4.769531 1.625 -4.660156 1.65625 -4.515625 C 1.695312 -4.367188 1.71875 -4.257812 1.71875 -4.1875 C 1.71875 -4.1875 1.695312 -4.035156 1.65625 -3.734375 C 1.570312 -3.171875 1.53125 -2.769531 1.53125 -2.53125 C 1.53125 -2.46875 1.546875 -2.375 1.578125 -2.25 C 1.609375 -2.125 1.625 -2.03125 1.625 -1.96875 L 1.625 -0.109375 L 1.4375 0.234375 L 1.078125 -0.21875 L 0.921875 -0.109375 L 0.6875 -0.1875 L 0.640625 0.015625 L 0.203125 -0.109375 L 0.203125 -0.875 C 0.203125 -0.882812 0.234375 -1.039062 0.296875 -1.34375 L 0.109375 -1.765625 C 0.148438 -1.992188 0.1875 -2.21875 0.21875 -2.4375 C 0.269531 -2.707031 0.296875 -2.929688 0.296875 -3.109375 C 0.296875 -3.234375 0.269531 -3.410156 0.21875 -3.640625 C 0.164062 -3.878906 0.140625 -4.0625 0.140625 -4.1875 C 0.140625 -4.300781 0.148438 -4.457031 0.171875 -4.65625 C 0.191406 -4.882812 0.203125 -5.046875 0.203125 -5.140625 C 0.203125 -5.140625 0.203125 -5.613281 0.203125 -6.5625 Z M 0.203125 -6.5625 "/></g></g></g><g fill="#ffffff" fill-opacity="1"><g transform="translate(95.261197, 24.110348)"><g><path d="M 0.28125 -1.453125 C 0.28125 -1.628906 0.253906 -1.890625 0.203125 -2.234375 C 0.160156 -2.585938 0.140625 -2.851562 0.140625 -3.03125 C 0.140625 -3.1875 0.148438 -3.421875 0.171875 -3.734375 C 0.203125 -4.046875 0.21875 -4.28125 0.21875 -4.4375 C 0.21875 -4.632812 0.203125 -4.890625 0.171875 -5.203125 C 0.128906 -5.660156 0.109375 -5.914062 0.109375 -5.96875 L 0.21875 -6.234375 L 0.21875 -6.5625 L 0.625 -6.5625 C 1.007812 -6.5625 1.328125 -6.597656 1.578125 -6.671875 L 1.890625 -6.5625 L 2.078125 -6.625 C 2.367188 -6.625 2.722656 -6.523438 3.140625 -6.328125 L 3.46875 -6.34375 C 3.570312 -6.09375 3.71875 -5.882812 3.90625 -5.71875 C 4.050781 -5.1875 4.125 -4.691406 4.125 -4.234375 C 4.125 -4.140625 4.097656 -4.019531 4.046875 -3.875 C 3.984375 -3.6875 3.945312 -3.566406 3.9375 -3.515625 C 3.914062 -3.378906 3.890625 -3.203125 3.859375 -2.984375 L 3.5 -2.65625 L 3.40625 -2.34375 L 2.75 -2.15625 L 2.59375 -2.25 C 2.3125 -2.15625 2.050781 -2.109375 1.8125 -2.109375 C 1.75 -2.109375 1.6875 -2.113281 1.625 -2.125 C 1.632812 -2.082031 1.640625 -2.046875 1.640625 -2.015625 C 1.640625 -1.929688 1.613281 -1.8125 1.5625 -1.65625 C 1.519531 -1.5 1.5 -1.378906 1.5 -1.296875 C 1.5 -1.210938 1.539062 -0.816406 1.625 -0.109375 L 1.34375 0 L 1 -0.15625 C 0.789062 -0.0195312 0.691406 0.046875 0.703125 0.046875 C 0.660156 0.046875 0.632812 -0.0390625 0.625 -0.21875 L 0.21875 -0.109375 C 0.21875 -0.179688 0.226562 -0.40625 0.25 -0.78125 C 0.269531 -1.050781 0.28125 -1.273438 0.28125 -1.453125 Z M 1.625 -5.0625 L 1.625 -4.171875 C 1.625 -4.140625 1.648438 -4.039062 1.703125 -3.875 L 1.625 -3.625 L 1.953125 -3.625 C 2.234375 -3.757812 2.457031 -3.820312 2.625 -3.8125 L 2.78125 -4.296875 L 2.625 -4.84375 L 2.46875 -4.796875 L 2.328125 -5.03125 L 1.828125 -5.0625 L 1.734375 -5 Z M 1.625 -5.0625 "/></g></g></g></svg>